/* XPM */
static char * spider_xpm[] = {
"50 50 26 1",
" 	c None",
".	c #FFFFFF",
"+	c #F7FAD4",
"@	c #FFFFFD",
"#	c #FFFFCF",
"$	c #D3D4A2",
"%	c #B0A361",
"&	c #9D8B46",
"*	c #88802E",
"=	c #6F611E",
"-	c #FCFFF1",
";	c #80835D",
">	c #FFFFF9",
",	c #676747",
"'	c #4F4719",
")	c #313010",
"!	c #B6C3B5",
"~	c #000000",
"{	c #9BABA9",
"]	c #0E0D06",
"^	c #A3B093",
"/	c #4C5244",
"(	c #303B33",
"_	c #DCE4D9",
":	c #7D877D",
"<	c #989890",
"                                                  ",
"                            .     ..++++@.        ",
"                           #$.   @%&&*===&-       ",
"                          .$;>  #%&**,'*=,&$      ",
"                          +&=$ .&*=='=====,&.     ",
"                          %))!.;===')'''==,'!     ",
"                    ..-!@.$~~{.)]'))]')'='));.  ..",
"                   .%&%=&*,)~;+~~]]]~)=)))]';$^;,/",
"                   .%&$=']]]~'^~~~~~~)]~)])=*'))((",
"                   .,$.$)~~~~]/~~~~~~~~]]])'''(;)/",
"                 .-_=: @/~~~~~]~~~~~~~~]~]))]);.]<",
"              .$&&)])%../~~)~~~~~~~~~~~]]])))^.   ",
"             @&*'']~~)../~~(~~~~~]~~~]])=&&'^.    ",
"          .$,&)),;)~~~;.+]~~~~~~]),,/~])';;,^     ",
"        >;'(),=$  .)~~~/%'~]]]]])'',;']]])(()!.   ",
"       -;,,^..     .(~~~]]))]~~~])))'=')~)/]]),.  ",
"     .^,^>.        .{))~~]]~]~~~~~])'*')]~))~~]:. ",
"   .:,/;.         .)~)'~~))])]~~~~~')=']]~])(~~~_ ",
"  .)](>          .=])])]]*,/']~~~~~]'))]]~)!.(~~, ",
"  .:!.          .%)]~~])]]]~])]~~~~~)')]])_  .(~/ ",
"               .;']]~~]]~~~~~]~~~~~~~]]~]/.   /~{ ",
"               ^)]]_{]]~~~~~~)]]~~~~~)])]/.  -~~. ",
"              +')); _~~~~~]]])]]~~~]]]))]).  ,~(. ",
"             .(~],../~~]~])])))~~~~~]])))]{  (~_  ",
"            .,~~!  >~~()]'))))]~~~~~~,:)))/  {~!  ",
"           .,]]_   ;~(.:),)))]~~~~~~~. {))). .]). ",
"           ;]~!   .)~_ ._,]))~~~~~~~~. .))]_  !~! ",
"          !]~:    ^]/.  ./~))~~~~]~~)> .{)~/   {{ ",
"         .(]/.   _]~.   ./~)~~~,.<({_   .(~~!     ",
"         ;]^.    :~(    ./])~~~:         ,]~,     ",
"       .;];      !/.    .)])~~)+         .))/     ",
"       ;~].             .)))~~/.          {]~.    ",
"      _]]!              !))]~~{           :]~/    ",
"     .;],               <~)]~~!           .]~].   ",
"     ;],                ;~)]~~_            <](.   ",
"    +]~<                /])]~/.             ..    ",
"    ,~).                -()])_                    ",
"    '~_                  .:~{                     ",
"    -_                    :~,                     ",
"                          ,~/                     ",
"                         .(~:                     ",
"                         ./].                     ",
"                         >~].                     ",
"                         ,~(                      ",
"                        .]~{                      ",
"                        .]~.                      ",
"                        .;:                       ",
"                                                  ",
"                                                  ",
"                                                  "};
